nRows=4
nColumns=145
DataType=double
version=3
OpenSimVersion=4.2-2021-03-12-fcedec9
endheader
time	ground_force_1_vx	ground_force_1_vy	ground_force_1_vz	ground_force_1_px	ground_force_1_py	ground_force_1_pz	ground_force_2_vx	ground_force_2_vy	ground_force_2_vz	ground_force_2_px	ground_force_2_py	ground_force_2_pz	ground_force_3_vx	ground_force_3_vy	ground_force_3_vz	ground_force_3_px	ground_force_3_py	ground_force_3_pz	ground_force_4_vx	ground_force_4_vy	ground_force_4_vz	ground_force_4_px	ground_force_4_py	ground_force_4_pz	ground_force_5_vx	ground_force_5_vy	ground_force_5_vz	ground_force_5_px	ground_force_5_py	ground_force_5_pz	ground_force_6_vx	ground_force_6_vy	ground_force_6_vz	ground_force_6_px	ground_force_6_py	ground_force_6_pz	ground_force_7_vx	ground_force_7_vy	ground_force_7_vz	ground_force_7_px	ground_force_7_py	ground_force_7_pz	ground_force_8_vx	ground_force_8_vy	ground_force_8_vz	ground_force_8_px	ground_force_8_py	ground_force_8_pz	ground_force_9_vx	ground_force_9_vy	ground_force_9_vz	ground_force_9_px	ground_force_9_py	ground_force_9_pz	ground_force_10_vx	ground_force_10_vy	ground_force_10_vz	ground_force_10_px	ground_force_10_py	ground_force_10_pz	ground_force_11_vx	ground_force_11_vy	ground_force_11_vz	ground_force_11_px	ground_force_11_py	ground_force_11_pz	ground_force_12_vx	ground_force_12_vy	ground_force_12_vz	ground_force_12_px	ground_force_12_py	ground_force_12_pz	ground_force_13_vx	ground_force_13_vy	ground_force_13_vz	ground_force_13_px	ground_force_13_py	ground_force_13_pz	ground_force_14_vx	ground_force_14_vy	ground_force_14_vz	ground_force_14_px	ground_force_14_py	ground_force_14_pz	ground_force_15_vx	ground_force_15_vy	ground_force_15_vz	ground_force_15_px	ground_force_15_py	ground_force_15_pz	ground_force_16_vx	ground_force_16_vy	ground_force_16_vz	ground_force_16_px	ground_force_16_py	ground_force_16_pz	ground_force_17_vx	ground_force_17_vy	ground_force_17_vz	ground_force_17_px	ground_force_17_py	ground_force_17_pz	ground_force_18_vx	ground_force_18_vy	ground_force_18_vz	ground_force_18_px	ground_force_18_py	ground_force_18_pz	ground_force_19_vx	ground_force_19_vy	ground_force_19_vz	ground_force_19_px	ground_force_19_py	ground_force_19_pz	ground_force_20_vx	ground_force_20_vy	ground_force_20_vz	ground_force_20_px	ground_force_20_py	ground_force_20_pz	ground_force_21_vx	ground_force_21_vy	ground_force_21_vz	ground_force_21_px	ground_force_21_py	ground_force_21_pz	ground_force_22_vx	ground_force_22_vy	ground_force_22_vz	ground_force_22_px	ground_force_22_py	ground_force_22_pz	ground_force_23_vx	ground_force_23_vy	ground_force_23_vz	ground_force_23_px	ground_force_23_py	ground_force_23_pz	ground_force_24_vx	ground_force_24_vy	ground_force_24_vz	ground_force_24_px	ground_force_24_py	ground_force_24_pz
2.780000000000	-0.801307634791	1.302057342588	-1.749680882825	0.968387562134	0.861906960541	-0.251543856088	-1.716380172502	2.317537580587	-1.245613059704	1.057718306075	0.771446100366	-0.255267164671	-2.435482661076	1.946700329467	-0.859650235794	1.063888945827	0.755291654018	-0.250278779917	-2.248939733891	2.055233580803	-0.133868533154	1.132934022663	0.657611004784	-0.302996989690	-12.163053544953	9.509544002800	-9.573742048373	1.005901707399	0.822148549777	-0.237909235941	-8.360296474080	15.739491429164	-41.071189497799	0.929416927477	0.885534525460	-0.250478325778	-1.409736267192	2.999001458064	-0.293468790422	1.121504002406	0.612239301828	-0.225299978488	5.916142757394	5.661793678026	0.779899945448	0.819497701690	0.335556337381	-0.262346243886	8.525174665281	8.751420375591	-0.435852127746	0.819497701690	0.335556337381	-0.262346243886	-1.823409993112	3.736762730154	-0.393084893299	0.875555296321	0.902141237459	-0.242931890307	-10.248857732049	15.057792930404	-2.352187183994	0.892983817398	0.879154785828	-0.247123397541	-71.882041849648	48.997065604798	-30.712355729012	0.945383452568	0.843253401470	-0.262042853563	2.855312320333	6.344014752905	-0.868907468746	0.880136442572	0.937095926238	-0.216295767121	0.726602126681	3.666330666750	-1.892203872770	0.872651733099	0.939298298222	-0.219649659432	-0.242160938471	3.370636827267	-2.675934154317	0.867490893134	0.936678843199	-0.220635383243	0.816775100198	2.021926501046	-0.910621204105	0.891879947477	0.948343447536	-0.216004538327	0.477065689678	2.218047871552	-1.153942218684	0.889799928991	0.946683480543	-0.215972453879	0.133970297310	2.070592108218	-1.490835771410	0.884989876415	0.945754499483	-0.217136969494	0.707459364898	3.934881024982	-1.249915079053	0.928924601126	0.909780010520	-0.260308767298	-0.833765645175	3.634141152840	-3.474454989814	0.880861232217	0.948370312231	-0.229879392658	14.809647762089	43.619061786388	-16.720295235161	0.912905827912	0.910267331997	-0.270972272965	7.681439425550	6.800187793428	2.179020749612	1.155154987178	0.530572695350	-0.266811707730	78.470319996509	72.292058679731	27.970259740861	1.155381133737	0.529848851334	-0.261822894576	22.162653699604	18.045447606701	5.776263389001	1.153772067674	0.531748159883	-0.274409721768
2.790000000000	-1.571610328270	2.555671519727	-3.478780564932	0.969050893281	0.867839672861	-0.251901325331	-1.928943617453	2.567092059199	-1.423673756271	1.059543953510	0.778067700808	-0.254307136205	-9.294979963952	7.339577392908	-3.399764972130	1.065627786075	0.762189832275	-0.249384083046	-2.230900044675	2.000408781991	-0.161662442011	1.136518527921	0.665749948955	-0.301345946800	-19.581806698406	15.229144326901	-15.705287944752	1.006612411579	0.828466530303	-0.237926685373	-9.115938635248	17.537244782921	-45.487910216461	0.929971268332	0.890975616142	-0.251477269244	-1.445332346319	3.099264345698	-0.314636848987	1.125367344302	0.611862080328	-0.223464173010	5.678385760164	6.704959199291	0.953699317114	0.852406527223	0.308550091428	-0.266669731880	9.347682279723	11.812505471876	-0.331940279526	0.852406527223	0.308550091428	-0.266669731880	-1.747138467810	3.585978235314	-0.347925750193	0.875615476843	0.907208549827	-0.245257542869	-6.276999324959	9.226340450249	-1.412490443008	0.893359515001	0.884424137527	-0.249222225001	-66.834560521284	45.526621757656	-29.087932441418	0.946427223929	0.849143950079	-0.263234647189	2.897158871441	6.296223441770	-0.780547928954	0.879266209380	0.942019889117	-0.218291953023	0.750977614524	3.574020631475	-1.795631328830	0.871834804458	0.944172001999	-0.221793744406	-0.181282902784	3.263634624640	-2.535000121312	0.866723048440	0.941508937352	-0.222909765150	0.857276844309	2.033292104716	-0.891691996055	0.890887863230	0.953379875191	-0.217667985712	0.510636287510	2.201239509048	-1.119937526704	0.888824291490	0.951699380644	-0.217692612611	0.165653657372	2.001753545991	-1.414000154104	0.884050266833	0.950731358936	-0.218968281359	0.756616139545	4.189627786308	-1.338720615275	0.929272085346	0.915492024289	-0.261411236503	-0.726403019427	3.504569798840	-3.289722107620	0.880174497284	0.953395325158	-0.231779964375	14.132610163894	41.901810241967	-15.941543356587	0.913485505059	0.915896400558	-0.272418928964	8.112463495698	8.577632714485	2.644569434972	1.166322601105	0.537322122667	-0.264953858302	81.180953739443	89.382393173391	33.057935661681	1.166531262795	0.536616330657	-0.259961697742	23.564529859462	22.960986291658	7.040416921449	1.164964484217	0.538362756021	-0.272575970954
2.800000000000	-5.401338469633	8.928767467987	-12.185953896202	0.971326073624	0.876292980745	-0.249582539782	-2.183404021560	2.953939304291	-1.611491257793	1.061146770843	0.785546751551	-0.252286303917	-20.194256668204	16.217901464453	-7.280160397026	1.067483150666	0.769362745300	-0.247383746419	-2.203594661668	2.001696720022	-0.142605024224	1.136841516905	0.673998890319	-0.300355542429	-24.262809191178	19.161344614153	-19.369977128989	1.008179682036	0.836623596236	-0.236115836993	-8.175020643496	16.018169032443	-42.507683044135	0.932459059506	0.899808162424	-0.249129526369	-1.438703469135	3.234078347242	-0.290490842826	1.133434901481	0.595841224042	-0.221702761685	5.174324651785	7.622581801888	1.108199167527	0.886169923221	0.282978533047	-0.271178196029	9.259999057723	14.644726735627	-0.171155766323	0.886169923221	0.282978533047	-0.271178196029	-1.653493666383	3.408551452203	-0.335653383120	0.878038476197	0.916721347991	-0.243980996059	-5.808042338597	8.679271713128	-1.277749586233	0.895619793007	0.893831048687	-0.248059051413	-55.436193995490	38.162101671621	-23.781269912545	0.948538373221	0.858261771506	-0.261903607081	2.879761579872	6.190600479088	-0.875337090517	0.881651395026	0.951079828330	-0.216435726533	0.764700390219	3.416951006332	-1.790810996938	0.874288469801	0.953356397006	-0.220002865312	-0.118960286653	3.035617589048	-2.422758575108	0.869167476929	0.950759855657	-0.221227965402	0.862511567542	2.012798515219	-0.904538545696	0.893369675406	0.962316954224	-0.215481596785	0.523987675300	2.144546652038	-1.117064273956	0.891290942480	0.960656903178	-0.215559678020	0.189577177277	1.907225869782	-1.374994100502	0.886525699819	0.959754329541	-0.216913757564	0.849977921557	4.400171484280	-1.380336530110	0.931983660402	0.924735720168	-0.259287084487	-0.616595563109	3.272937253083	-3.144507080644	0.882848421682	0.962650866315	-0.229733477825	7.164731621532	20.334157170932	-7.530615954384	0.916351619071	0.925459707151	-0.270497082582	6.362523376198	8.005161892779	2.371227719630	1.174169290049	0.543663517596	-0.264671595284	64.100772654612	84.036872908762	29.780654616553	1.174396073927	0.542953328519	-0.259680848881	18.902408005064	21.923126370905	6.421557658383	1.172793282046	0.544601386018	-0.272303829908
2.810000000000	-7.474180783725	12.960308323890	-17.578492096311	0.973716026437	0.875014651770	-0.244534858799	-10.577626954359	14.529228305994	-8.080250310661	1.061367030626	0.788496832846	-0.251707169551	-25.454569437733	20.668847709333	-9.631508146599	1.067508348238	0.772435867895	-0.246870074661	-9.307969396637	8.451957141371	-0.733643214741	1.138044663302	0.678011794279	-0.299163931442	-23.301850009937	18.873568498318	-19.248127712966	1.007715318091	0.839640570447	-0.236548621721	-5.609325840244	12.217216044975	-31.538913822197	0.932276138739	0.902932723070	-0.250686781401	-1.487709192736	3.330424733901	-0.298995593102	1.135191827634	0.595043011296	-0.221278808516	4.543086776453	8.440631337863	1.310826848122	0.921791541322	0.259154278357	-0.277623758612	8.283886228075	16.547057893646	0.110637605183	0.921791541322	0.259154278357	-0.277623758612	-1.547337524020	3.261284166635	-0.286442644559	0.877773595259	0.919759957372	-0.247049884814	-10.419708290596	15.813354102044	-2.224365600094	0.895480073961	0.896928998241	-0.250913426655	-41.740077493882	29.210912256265	-18.358225010776	0.948790694395	0.861554700151	-0.263714134304	2.901798922003	6.060980140907	-0.730287334480	0.880595571220	0.953788823799	-0.219007543109	0.786461019049	3.309874803282	-1.658939858722	0.873332046995	0.956104069416	-0.222749302779	-0.056655572330	2.862357424710	-2.205478983227	0.868249024318	0.953519726462	-0.224146269910	0.897943535744	1.994638220692	-0.855583189458	0.892273576331	0.965019745678	-0.217596144009	0.558067648163	2.104828371016	-1.053408405754	0.890199189736	0.963359682351	-0.217751407465	0.224718310613	1.855610227904	-1.293664850482	0.885473918030	0.962470908620	-0.219247267341	0.930314342695	4.611191173437	-1.432685979878	0.932114119520	0.927984176020	-0.260763347321	-0.493728663113	3.039498342845	-2.831249240390	0.882149620561	0.965518478632	-0.232128218032	2.363227849906	6.619411132061	-2.395074614488	0.916796997855	0.928834008232	-0.272391438297	5.666001833948	8.565475735432	2.525280549112	1.182115428161	0.547284742541	-0.263057362847	56.479868434308	89.309922316400	31.243278436659	1.182271059782	0.546588587337	-0.258061915336	17.017838445421	23.649833631811	6.890924656914	1.180868521744	0.548099407927	-0.270725840222
